<svg xmlns="http://www.w3.org/2000/svg" aria-hidden="true" style="display: none;">
  <symbol id="radio-tower" viewBox="0 0 24 24" fill="none" stroke="currentColor" stroke-width="2" stroke-linecap="round" stroke-linejoin="round">
    <path d="M4.9 16.1C1 12.2 1 5.8 4.9 1.9" />
      <path d="M7.8 4.7a6.14 6.14 0 0 0-.8 7.5" />
      <circle cx="12" cy="9" r="2" />
      <path d="M16.2 4.8c2 2 2.26 5.11.8 7.47" />
      <path d="M19.1 1.9a9.96 9.96 0 0 1 0 14.1" />
      <path d="M9.5 18h5" />
      <path d="m8 22 4-11 4 11" />
  </symbol>
  <symbol id="play" viewBox="0 0 24 24" fill="none" stroke="currentColor" stroke-width="2" stroke-linecap="round" stroke-linejoin="round">
    <path d="M5 5a2 2 0 0 1 3.008-1.728l11.997 6.998a2 2 0 0 1 .003 3.458l-12 7A2 2 0 0 1 5 19z" />
  </symbol>
  <symbol id="pause" viewBox="0 0 24 24" fill="none" stroke="currentColor" stroke-width="2" stroke-linecap="round" stroke-linejoin="round">
    <rect x="14" y="3" width="5" height="18" rx="1" />
      <rect x="5" y="3" width="5" height="18" rx="1" />
  </symbol>
  <symbol id="anchor" viewBox="0 0 24 24" fill="none" stroke="currentColor" stroke-width="2" stroke-linecap="round" stroke-linejoin="round">
    <path d="M12 6v16" />
      <path d="m19 13 2-1a9 9 0 0 1-18 0l2 1" />
      <path d="M9 11h6" />
      <circle cx="12" cy="4" r="2" />
  </symbol>
  <symbol id="podcast" viewBox="0 0 24 24" fill="none" stroke="currentColor" stroke-width="2" stroke-linecap="round" stroke-linejoin="round">
    <path d="M13 17a1 1 0 1 0-2 0l.5 4.5a0.5 0.5 0 0 0 1 0z" fill="currentColor" />
      <path d="M16.85 18.58a9 9 0 1 0-9.7 0" />
      <path d="M8 14a5 5 0 1 1 8 0" />
      <circle cx="12" cy="11" r="1" fill="currentColor" />
  </symbol>
  <symbol id="radio" viewBox="0 0 24 24" fill="none" stroke="currentColor" stroke-width="2" stroke-linecap="round" stroke-linejoin="round">
    <path d="M16.247 7.761a6 6 0 0 1 0 8.478" />
      <path d="M19.075 4.933a10 10 0 0 1 0 14.134" />
      <path d="M4.925 19.067a10 10 0 0 1 0-14.134" />
      <path d="M7.753 16.239a6 6 0 0 1 0-8.478" />
      <circle cx="12" cy="12" r="2" />
  </symbol>
  <symbol id="radio-receiver" viewBox="0 0 24 24" fill="none" stroke="currentColor" stroke-width="2" stroke-linecap="round" stroke-linejoin="round">
    <path d="M5 16v2" />
      <path d="M19 16v2" />
      <rect width="20" height="8" x="2" y="8" rx="2" />
      <path d="M18 12h.01" />
  </symbol>
  <symbol id="square-play" viewBox="0 0 24 24" fill="none" stroke="currentColor" stroke-width="2" stroke-linecap="round" stroke-linejoin="round">
    <rect x="3" y="3" width="18" height="18" rx="2" />
      <path d="M9 9.003a1 1 0 0 1 1.517-.859l4.997 2.997a1 1 0 0 1 0 1.718l-4.997 2.997A1 1 0 0 1 9 14.996z" />
  </symbol>
  <symbol id="skip-back" viewBox="0 0 24 24" fill="none" stroke="currentColor" stroke-width="2" stroke-linecap="round" stroke-linejoin="round">
    <path d="M17.971 4.285A2 2 0 0 1 21 6v12a2 2 0 0 1-3.029 1.715l-9.997-5.998a2 2 0 0 1-.003-3.432z" />
      <path d="M3 20V4" />
  </symbol>
  <symbol id="skip-forward" viewBox="0 0 24 24" fill="none" stroke="currentColor" stroke-width="2" stroke-linecap="round" stroke-linejoin="round">
    <path d="M21 4v16" />
      <path d="M6.029 4.285A2 2 0 0 0 3 6v12a2 2 0 0 0 3.029 1.715l9.997-5.998a2 2 0 0 0 .003-3.432z" />
  </symbol>
  <symbol id="volume-2" viewBox="0 0 24 24" fill="none" stroke="currentColor" stroke-width="2" stroke-linecap="round" stroke-linejoin="round">
    <path d="M11 4.702a.705.705 0 0 0-1.203-.498L6.413 7.587A1.4 1.4 0 0 1 5.416 8H3a1 1 0 0 0-1 1v6a1 1 0 0 0 1 1h2.416a1.4 1.4 0 0 1 .997.413l3.383 3.384A.705.705 0 0 0 11 19.298z" />
      <path d="M16 9a5 5 0 0 1 0 6" />
      <path d="M19.364 18.364a9 9 0 0 0 0-12.728" />
  </symbol>
  <symbol id="mail" viewBox="0 0 24 24" fill="none" stroke="currentColor" stroke-width="2" stroke-linecap="round" stroke-linejoin="round">
    <path d="m22 7-8.991 5.727a2 2 0 0 1-2.009 0L2 7" />
      <rect x="2" y="4" width="20" height="16" rx="2" />
  </symbol>
  <symbol id="music" viewBox="0 0 24 24" fill="none" stroke="currentColor" stroke-width="2" stroke-linecap="round" stroke-linejoin="round">
    <path d="M9 18V5l12-2v13" />
      <circle cx="6" cy="18" r="3" />
      <circle cx="18" cy="16" r="3" />
  </symbol>
  <symbol id="mic-2" viewBox="0 0 24 24" fill="none" stroke="currentColor" stroke-width="2" stroke-linecap="round" stroke-linejoin="round">
    <path d="m11 7.601-5.994 8.19a1 1 0 0 0 .1 1.298l.817.818a1 1 0 0 0 1.314.087L15.09 12" />
      <path d="M16.5 21.174C15.5 20.5 14.372 20 13 20c-2.058 0-3.928 2.356-6 2-2.072-.356-2.775-3.369-1.5-4.5" />
      <circle cx="16" cy="7" r="5" />
  </symbol>
  <symbol id="smile" viewBox="0 0 24 24" fill="none" stroke="currentColor" stroke-width="2" stroke-linecap="round" stroke-linejoin="round">
    <circle cx="12" cy="12" r="10" />
      <path d="M8 14s1.5 2 4 2 4-2 4-2" />
      <line x1="9" x2="9.01" y1="9" y2="9" />
      <line x1="15" x2="15.01" y1="9" y2="9" />
  </symbol>
  <symbol id="users" viewBox="0 0 24 24" fill="none" stroke="currentColor" stroke-width="2" stroke-linecap="round" stroke-linejoin="round">
    <path d="M16 21v-2a4 4 0 0 0-4-4H6a4 4 0 0 0-4 4v2" />
      <path d="M16 3.128a4 4 0 0 1 0 7.744" />
      <path d="M22 21v-2a4 4 0 0 0-3-3.87" />
      <circle cx="9" cy="7" r="4" />
  </symbol>
  <symbol id="camera" viewBox="0 0 24 24" fill="none" stroke="currentColor" stroke-width="2" stroke-linecap="round" stroke-linejoin="round">
    <path d="M13.997 4a2 2 0 0 1 1.76 1.05l.486.9A2 2 0 0 0 18.003 7H20a2 2 0 0 1 2 2v9a2 2 0 0 1-2 2H4a2 2 0 0 1-2-2V9a2 2 0 0 1 2-2h1.997a2 2 0 0 0 1.759-1.048l.489-.904A2 2 0 0 1 10.004 4z" />
      <circle cx="12" cy="13" r="3" />
  </symbol>
  <symbol id="video" viewBox="0 0 24 24" fill="none" stroke="currentColor" stroke-width="2" stroke-linecap="round" stroke-linejoin="round">
    <path d="m16 13 5.223 3.482a.5.5 0 0 0 .777-.416V7.87a.5.5 0 0 0-.752-.432L16 10.5" />
      <rect x="2" y="6" width="14" height="12" rx="2" />
  </symbol>
  <symbol id="send" viewBox="0 0 24 24" fill="none" stroke="currentColor" stroke-width="2" stroke-linecap="round" stroke-linejoin="round">
    <path d="M14.536 21.686a.5.5 0 0 0 .937-.024l6.5-19a.496.496 0 0 0-.635-.635l-19 6.5a.5.5 0 0 0-.024.937l7.93 3.18a2 2 0 0 1 1.112 1.11z" />
      <path d="m21.854 2.147-10.94 10.939" />
  </symbol>
  <symbol id="music-2" viewBox="0 0 24 24" fill="none" stroke="currentColor" stroke-width="2" stroke-linecap="round" stroke-linejoin="round">
    <circle cx="8" cy="18" r="4" />
      <path d="M12 18V2l7 4" />
  </symbol>
  <symbol id="messages-square" viewBox="0 0 24 24" fill="none" stroke="currentColor" stroke-width="2" stroke-linecap="round" stroke-linejoin="round">
    <path d="M16 10a2 2 0 0 1-2 2H6.828a2 2 0 0 0-1.414.586l-2.202 2.202A.71.71 0 0 1 2 14.286V4a2 2 0 0 1 2-2h10a2 2 0 0 1 2 2z" />
      <path d="M20 9a2 2 0 0 1 2 2v10.286a.71.71 0 0 1-1.212.502l-2.202-2.202A2 2 0 0 0 17.172 19H10a2 2 0 0 1-2-2v-1" />
  </symbol>
  <symbol id="bookmark" viewBox="0 0 24 24" fill="none" stroke="currentColor" stroke-width="2" stroke-linecap="round" stroke-linejoin="round">
    <path d="M17 3a2 2 0 0 1 2 2v15a1 1 0 0 1-1.496.868l-4.512-2.578a2 2 0 0 0-1.984 0l-4.512 2.578A1 1 0 0 1 5 20V5a2 2 0 0 1 2-2z" />
  </symbol>
  <symbol id="arrow-right" viewBox="0 0 24 24" fill="none" stroke="currentColor" stroke-width="2" stroke-linecap="round" stroke-linejoin="round">
    <path d="M5 12h14" />
      <path d="m12 5 7 7-7 7" />
  </symbol>
  <symbol id="chevron-right" viewBox="0 0 24 24" fill="none" stroke="currentColor" stroke-width="2" stroke-linecap="round" stroke-linejoin="round">
    <path d="m9 18 6-6-6-6" />
  </symbol>
  <symbol id="headphones" viewBox="0 0 24 24" fill="none" stroke="currentColor" stroke-width="2" stroke-linecap="round" stroke-linejoin="round">
    <path d="M3 14h3a2 2 0 0 1 2 2v3a2 2 0 0 1-2 2H5a2 2 0 0 1-2-2v-7a9 9 0 0 1 18 0v7a2 2 0 0 1-2 2h-1a2 2 0 0 1-2-2v-3a2 2 0 0 1 2-2h3" />
  </symbol>
  <symbol id="phone" viewBox="0 0 24 24" fill="none" stroke="currentColor" stroke-width="2" stroke-linecap="round" stroke-linejoin="round">
    <path d="M13.832 16.568a1 1 0 0 0 1.213-.303l.355-.465A2 2 0 0 1 17 15h3a2 2 0 0 1 2 2v3a2 2 0 0 1-2 2A18 18 0 0 1 2 4a2 2 0 0 1 2-2h3a2 2 0 0 1 2 2v3a2 2 0 0 1-.8 1.6l-.468.351a1 1 0 0 0-.292 1.233 14 14 0 0 0 6.392 6.384" />
  </symbol>
  <symbol id="map-pin" viewBox="0 0 24 24" fill="none" stroke="currentColor" stroke-width="2" stroke-linecap="round" stroke-linejoin="round">
    <path d="M20 10c0 4.993-5.539 10.193-7.399 11.799a1 1 0 0 1-1.202 0C9.539 20.193 4 14.993 4 10a8 8 0 0 1 16 0" />
      <circle cx="12" cy="10" r="3" />
  </symbol>
  <symbol id="heart" viewBox="0 0 24 24" fill="none" stroke="currentColor" stroke-width="2" stroke-linecap="round" stroke-linejoin="round">
    <path d="M2 9.5a5.5 5.5 0 0 1 9.591-3.676.56.56 0 0 0 .818 0A5.49 5.49 0 0 1 22 9.5c0 2.29-1.5 4-3 5.5l-5.492 5.313a2 2 0 0 1-3 .019L5 15c-1.5-1.5-3-3.2-3-5.5" />
  </symbol>
  <symbol id="calendar-days" viewBox="0 0 24 24" fill="none" stroke="currentColor" stroke-width="2" stroke-linecap="round" stroke-linejoin="round">
    <path d="M8 2v4" />
      <path d="M16 2v4" />
      <rect width="18" height="18" x="3" y="4" rx="2" />
      <path d="M3 10h18" />
      <path d="M8 14h.01" />
      <path d="M12 14h.01" />
      <path d="M16 14h.01" />
      <path d="M8 18h.01" />
      <path d="M12 18h.01" />
      <path d="M16 18h.01" />
  </symbol>
  <symbol id="newspaper" viewBox="0 0 24 24" fill="none" stroke="currentColor" stroke-width="2" stroke-linecap="round" stroke-linejoin="round">
    <path d="M15 18h-5" />
      <path d="M18 14h-8" />
      <path d="M4 22h16a2 2 0 0 0 2-2V4a2 2 0 0 0-2-2H8a2 2 0 0 0-2 2v16a2 2 0 0 1-4 0v-9a2 2 0 0 1 2-2h2" />
      <rect width="8" height="4" x="10" y="6" rx="1" />
  </symbol>
</svg>
